<svg width="24" height="24" viewBox="0 0 24 24" fill="none" xmlns="http://www.w3.org/2000/svg">
<path d="M3.35288 14.8117L4.08229 14.6372L3.35288 14.8117ZM3.35288 8.83297L4.08229 9.00752L3.35288 8.83297ZM20.6471 8.83298L19.9177 9.00752L20.6471 8.83298ZM20.6471 14.8117L19.9177 14.6372L20.6471 14.8117ZM15.0496 20.2988L14.8815 19.5679L15.0496 20.2988ZM8.95044 20.2988L8.78237 21.0297L8.95044 20.2988ZM8.95043 3.34591L9.1185 4.07684L8.95043 3.34591ZM15.0496 3.34591L14.8815 4.07684L15.0496 3.34591ZM4.08229 14.6372C3.63924 12.7857 3.63924 10.859 4.08229 9.00752L2.62347 8.65843C2.12551 10.7394 2.12551 12.9053 2.62347 14.9863L4.08229 14.6372ZM19.9177 9.00752C20.3608 10.859 20.3608 12.7857 19.9177 14.6372L21.3765 14.9863C21.8745 12.9053 21.8745 10.7394 21.3765 8.65844L19.9177 9.00752ZM14.8815 19.5679C12.9863 20.0036 11.0137 20.0036 9.1185 19.5679L8.78237 21.0297C10.8988 21.5164 13.1012 21.5164 15.2176 21.0297L14.8815 19.5679ZM9.1185 4.07684C11.0137 3.64105 12.9863 3.64105 14.8815 4.07684L15.2176 2.61498C13.1012 2.12834 10.8988 2.12834 8.78237 2.61499L9.1185 4.07684ZM9.1185 19.5679C6.61229 18.9916 4.66599 17.0765 4.08229 14.6372L2.62347 14.9863C3.34276 17.9922 5.73374 20.3287 8.78237 21.0297L9.1185 19.5679ZM15.2176 21.0297C18.2663 20.3287 20.6572 17.9922 21.3765 14.9863L19.9177 14.6372C19.334 17.0765 17.3877 18.9916 14.8815 19.5679L15.2176 21.0297ZM14.8815 4.07684C17.3877 4.65311 19.334 6.56823 19.9177 9.00752L21.3765 8.65844C20.6572 5.65253 18.2663 3.31598 15.2176 2.61498L14.8815 4.07684ZM8.78237 2.61499C5.73373 3.31598 3.34276 5.65252 2.62347 8.65843L4.08229 9.00752C4.66599 6.56823 6.61228 4.65311 9.1185 4.07684L8.78237 2.61499ZM14.8305 21C14.8305 19.5363 14.8322 18.5154 14.9378 17.7451C15.0403 16.998 15.2278 16.5993 15.5196 16.3132L14.4696 15.242C13.8474 15.852 13.5778 16.6223 13.4518 17.5413C13.3289 18.4372 13.3305 19.5795 13.3305 21H14.8305ZM20.3222 14.1316C18.8718 14.1316 17.7101 14.13 16.7998 14.25C15.8695 14.3726 15.0897 14.6341 14.4696 15.242L15.5196 16.3132C15.8135 16.0251 16.2264 15.8385 16.9958 15.7371C17.7852 15.6331 18.8302 15.6316 20.3222 15.6316V14.1316Z" fill="#0095FF"/>
<path d="M3.35288 14.8117L4.08229 14.6372L3.35288 14.8117ZM3.35288 8.83297L4.08229 9.00752L3.35288 8.83297ZM20.6471 8.83298L19.9177 9.00752L20.6471 8.83298ZM20.6471 14.8117L19.9177 14.6372L20.6471 14.8117ZM15.0496 20.2988L14.8815 19.5679L15.0496 20.2988ZM8.95044 20.2988L8.78237 21.0297L8.95044 20.2988ZM8.95043 3.34591L9.1185 4.07684L8.95043 3.34591ZM15.0496 3.34591L14.8815 4.07684L15.0496 3.34591ZM4.08229 14.6372C3.63924 12.7857 3.63924 10.859 4.08229 9.00752L2.62347 8.65843C2.12551 10.7394 2.12551 12.9053 2.62347 14.9863L4.08229 14.6372ZM19.9177 9.00752C20.3608 10.859 20.3608 12.7857 19.9177 14.6372L21.3765 14.9863C21.8745 12.9053 21.8745 10.7394 21.3765 8.65844L19.9177 9.00752ZM14.8815 19.5679C12.9863 20.0036 11.0137 20.0036 9.1185 19.5679L8.78237 21.0297C10.8988 21.5164 13.1012 21.5164 15.2176 21.0297L14.8815 19.5679ZM9.1185 4.07684C11.0137 3.64105 12.9863 3.64105 14.8815 4.07684L15.2176 2.61498C13.1012 2.12834 10.8988 2.12834 8.78237 2.61499L9.1185 4.07684ZM9.1185 19.5679C6.61229 18.9916 4.66599 17.0765 4.08229 14.6372L2.62347 14.9863C3.34276 17.9922 5.73374 20.3287 8.78237 21.0297L9.1185 19.5679ZM15.2176 21.0297C18.2663 20.3287 20.6572 17.9922 21.3765 14.9863L19.9177 14.6372C19.334 17.0765 17.3877 18.9916 14.8815 19.5679L15.2176 21.0297ZM14.8815 4.07684C17.3877 4.65311 19.334 6.56823 19.9177 9.00752L21.3765 8.65844C20.6572 5.65253 18.2663 3.31598 15.2176 2.61498L14.8815 4.07684ZM8.78237 2.61499C5.73373 3.31598 3.34276 5.65252 2.62347 8.65843L4.08229 9.00752C4.66599 6.56823 6.61228 4.65311 9.1185 4.07684L8.78237 2.61499Z" fill="#363853"/>
<path d="M9 9H12M9 12H14" stroke="#0095FF" stroke-width="1.5" stroke-linecap="round"/>
</svg>
