<svg width="24" height="24" viewBox="0 0 24 24" fill="none" xmlns="http://www.w3.org/2000/svg">
<path d="M21 12H17M19 14L19 10" stroke="#0095FF" stroke-width="1.5" stroke-linecap="round"/>
<path d="M3 19.1115C3 16.6984 4.69732 14.643 7.00404 14.2627L7.21182 14.2284C9.05892 13.9239 10.9411 13.9239 12.7882 14.2284L12.996 14.2627C15.3027 14.643 17 16.6984 17 19.1115C17 20.1545 16.1815 21 15.1719 21H4.82813C3.81848 21 3 20.1545 3 19.1115Z" stroke="#363853" stroke-width="1.5"/>
<path d="M14.0832 6.9375C14.0832 9.11212 12.255 10.875 9.99984 10.875C7.74467 10.875 5.9165 9.11212 5.9165 6.9375C5.9165 4.76288 7.74467 3 9.99984 3C12.255 3 14.0832 4.76288 14.0832 6.9375Z" stroke="#0095FF" stroke-width="1.5"/>
</svg>
