<svg width="24" height="24" viewBox="0 0 24 24" fill="none" xmlns="http://www.w3.org/2000/svg">
<path d="M16.8602 15.3735C16.9114 15.3905 16.9613 15.411 17.0096 15.435L18.6934 16.2712C19.9828 16.9116 21.4999 15.9803 21.4999 14.5485L21.4999 9.81006C21.4999 8.29721 19.8245 7.37491 18.5329 8.17671L17.0472 9.099C16.974 9.14445 16.9063 9.198 16.8452 9.25863" stroke="#0095FF" stroke-width="1.5"/>
<path d="M16.6633 15.3084C17.1102 13.3366 17.1526 11.2977 16.7904 9.31325M2.8825 15.4419L2.94414 15.7158C3.31747 17.375 4.60449 18.6812 6.26653 19.0876C8.53218 19.6417 10.9252 19.6353 13.1909 19.0813C14.832 18.68 16.1361 17.4066 16.549 15.7787L16.574 15.6801C17.1868 13.2644 17.1868 10.7356 16.574 8.31991L16.549 8.22135C16.1361 6.59343 14.832 5.32005 13.1909 4.91871C10.9252 4.36467 8.53218 4.35834 6.26653 4.91238C4.60448 5.31882 3.31747 6.62497 2.94414 8.28418L2.8825 8.55815C2.3725 10.8248 2.3725 13.1752 2.8825 15.4419Z" stroke="#363853" stroke-width="1.5"/>
</svg>
